uphill_walking_calibrated_grf.mot
version=1
nRows=6
nColumns=37
inDegrees=yes
endheader
time	ground_force1_vx	ground_force1_vy	ground_force1_vz	ground_force1_px	ground_force1_py	ground_force1_pz	ground_torque1_x	ground_torque1_y	ground_torque1_z	ground_force2_vx	ground_force2_vy	ground_force2_vz	ground_force2_px	ground_force2_py	ground_force2_pz	ground_torque2_x	ground_torque2_y	ground_torque2_z	femur_assistance_force_vx	femur_assistance_force_vy	femur_assistance_force_vz	femur_assistance_force_px	femur_assistance_force_py	femur_assistance_force_pz	femur_assistance_torque_x	femur_assistance_torque_y	femur_assistance_torque_z	tibia_assistance_force_vx	tibia_assistance_force_vy	tibia_assistance_force_vz	tibia_assistance_force_px	tibia_assistance_force_py	tibia_assistance_force_pz	tibia_assistance_torque_x	tibia_assistance_torque_y	tibia_assistance_torque_z
     29.77000000	    106.54440300	    458.65536500	     26.29310000	      0.73865600	      0.00000000	     -0.64825300	      0.00000000	     -7.02995500	      0.00002300	      0.00000000	      0.00000000	      0.00000000	      0.88900000	      0.00000000	     -0.27900000	      0.00000000	      0.00000000	      0.00000000	      0.00000000	      0.00000000	      0.00000000	     -0.10000504	     -0.19600140	      0.00000000	      0.00000000	      0.00000000	      0.00000000	      0.00000000	     -0.00000000	      0.00000000	     -0.08000000	     -0.14860312	      0.00000000	      0.00000000	      0.00000000	      0.00000000
     29.77100000	    106.31552100	    456.36654700	     27.13233400	      0.73861500	      0.00000000	     -0.64829900	      0.00002300	     -5.44206500	      0.00002000	      0.00000000	      0.00000000	      0.00000000	      0.88900000	      0.00000000	     -0.27900000	      0.00000000	      0.00000000	      0.00000000	      0.00000000	      0.00000000	      0.00000000	     -0.10000504	     -0.19600140	      0.00000000	      0.00000000	      0.00000000	      0.00000000	      0.00000000	     -0.00000000	      0.00000000	     -0.08000000	     -0.14862229	      0.00000000	      0.00000000	      0.00000000	      0.00000000
     29.77200000	    104.94223000	    453.46737700	     28.88709400	      0.73580000	      0.00000000	     -0.64757700	      0.00001300	     -3.93178100	      0.00001400	      0.00000000	      0.00000000	      0.00000000	      0.88900000	      0.00000000	     -0.27900000	      0.00000000	      0.00000000	      0.00000000	      0.00000000	      0.00000000	      0.00000000	     -0.10000504	     -0.19600140	      0.00000000	      0.00000000	      0.00000000	      0.00000000	      0.00000000	     -0.00000000	      0.00000000	     -0.08000000	     -0.14864145	      0.00000000	      0.00000000	      0.00000000	      0.00000000
     29.77300000	    103.64523300	    448.88974000	     30.03150400	      0.73405800	      0.00000000	     -0.64562300	      0.00003000	     -2.56719400	      0.00002000	      0.00000000	      0.00000000	      0.00000000	      0.88900000	      0.00000000	     -0.27900000	      0.00000000	      0.00000000	      0.00000000	      0.00000000	      0.00000000	      0.00000000	     -0.10000504	     -0.19600140	      0.00000000	      0.00000000	      0.00000000	      0.00000000	      0.00000000	     -0.00000000	      0.00000000	     -0.08000000	     -0.14866062	      0.00000000	      0.00000000	      0.00000000	      0.00000000
     29.77400000	    103.72152700	    444.61727900	     30.48926700	      0.73122800	      0.00000000	     -0.64560200	      0.00001400	     -1.98522300	      0.00001100	      0.00000000	      0.00000000	      0.00000000	      0.88900000	      0.00000000	     -0.27900000	      0.00000000	      0.00000000	      0.00000000	      0.00000000	      0.00000000	      0.00000000	     -0.10000504	     -0.19600140	      0.00000000	      0.00000000	      0.00000000	      0.00000000	      0.00000000	     -0.00000000	      0.00000000	     -0.08000000	     -0.14867979	      0.00000000	      0.00000000	      0.00000000	      0.00000000
     29.77500000	    104.63705400	    439.73446700	     30.48926700	      0.73046400	      0.00000000	     -0.64506300	      0.00002700	     -1.22780000	      0.00001600	      0.00000000	      0.00000000	      0.00000000	      0.88900000	      0.00000000	     -0.27900000	      0.00000000	      0.00000000	      0.00000000	      0.00000000	      0.00000000	      0.00000000	     -0.10000504	     -0.19600140	      0.00000000	      0.00000000	      0.00000000	      0.00000000	      0.00000000	     -0.00000000	      0.00000000	     -0.08000000	     -0.14869897	      0.00000000	      0.00000000	      0.00000000	      0.00000000
